<svg width="251" height="47" viewBox="0 0 251 47" fill="none" xmlns="http://www.w3.org/2000/svg">
<path fill-rule="evenodd" clip-rule="evenodd" d="M27.5557 27.2788C27.4357 27.2633 27.3145 27.2253 27.1969 27.1618L13.9481 20.0045C13.2533 19.6291 13.2137 18.6516 13.8776 18.263L26.5362 10.8526C26.7498 10.7275 26.9841 10.6944 27.2036 10.7333C28.037 9.61011 29.0475 8.5692 30.2174 7.63727L32.9391 9.7986C30.6916 11.5889 29.1711 13.8763 28.57 16.3715C28.4429 16.8989 28.3581 17.4306 28.3152 17.9635L28.4153 20.4351C28.6024 21.5902 28.986 22.7281 29.5618 23.8167C30.8097 26.1757 32.9041 28.1969 35.5804 29.6247C36.5689 30.1521 38.0727 29.6977 39.5706 29.2452C42.1281 28.4725 44.6683 27.705 44.5971 31.8379C44.6684 27.7005 47.1711 28.4982 49.6735 29.2958C51.1348 29.7615 52.5959 30.2273 53.5726 29.7102C56.2221 28.3078 58.2785 26.3063 59.4818 23.9589C60.1286 22.6973 60.5132 21.3662 60.6301 20.0164L60.525 17.4229C60.4744 17.1219 60.4104 16.8216 60.3329 16.5225C59.6844 14.0213 58.1205 11.7193 55.8389 9.90746L58.52 7.77181C59.4662 8.5232 60.3125 9.3428 61.0497 10.217C61.2665 10.1733 61.504 10.2016 61.7283 10.3228L74.9771 17.48C75.6719 17.8554 75.7115 18.8329 75.0476 19.2216L62.389 26.632C62.2817 26.6948 62.1692 26.7344 62.056 26.7534C60.5366 28.9584 58.3675 30.8447 55.719 32.2467C52.4445 33.98 48.584 34.8951 44.6258 34.8763C40.6676 34.8575 36.7895 33.9056 33.4818 32.141C31.0888 30.8643 29.0721 29.2037 27.5557 27.2788Z" fill="#111011"/>
<path d="M37.321 23V5.54545H44.5312C45.8381 5.54545 46.9659 5.78125 47.9148 6.25284C48.8693 6.71875 49.6051 7.3892 50.1222 8.2642C50.6392 9.13352 50.8977 10.1648 50.8977 11.358C50.8977 12.5682 50.6335 13.5966 50.1051 14.4432C49.5767 15.2841 48.8267 15.9261 47.8551 16.3693C46.8835 16.8068 45.733 17.0256 44.4034 17.0256H39.8438V13.7017H43.6193C44.2557 13.7017 44.7869 13.6193 45.2131 13.4545C45.6449 13.2841 45.9716 13.0284 46.1932 12.6875C46.4148 12.3409 46.5256 11.8977 46.5256 11.358C46.5256 10.8182 46.4148 10.3722 46.1932 10.0199C45.9716 9.66193 45.6449 9.39489 45.2131 9.21875C44.7813 9.03693 44.25 8.94602 43.6193 8.94602H41.5398V23H37.321ZM47.1477 15.0227L51.4943 23H46.892L42.6307 15.0227H47.1477Z" fill="#BF02DE"/>
<path d="M97.7283 29.5091V14.9637H103.467C104.565 14.9637 105.503 15.1602 106.279 15.5532C107.061 15.9414 107.655 16.493 108.062 17.208C108.474 17.9182 108.68 18.7539 108.68 19.7151C108.68 20.681 108.472 21.512 108.055 22.208C107.638 22.8993 107.035 23.4296 106.244 23.7989C105.458 24.1682 104.506 24.3529 103.389 24.3529H99.5465V21.8813H102.892C103.479 21.8813 103.966 21.8008 104.355 21.6398C104.743 21.4788 105.032 21.2373 105.221 20.9154C105.415 20.5934 105.512 20.1933 105.512 19.7151C105.512 19.2321 105.415 18.8249 105.221 18.4935C105.032 18.1621 104.741 17.9111 104.348 17.7407C103.959 17.5655 103.469 17.4779 102.877 17.4779H100.804V29.5091H97.7283ZM105.583 22.8898L109.198 29.5091H105.804L102.267 22.8898H105.583ZM113.929 14.9637V29.5091H110.853V14.9637H113.929ZM115.905 17.4992V14.9637H127.851V17.4992H123.398V29.5091H120.358V17.4992H115.905ZM129.662 29.5091V27.6838L136.92 17.4992H129.648V14.9637H140.784V16.789L133.518 26.9736H140.798V29.5091H129.662ZM142.306 14.9637H145.75L149.067 21.2279H149.209L152.526 14.9637H155.97L150.665 24.3671V29.5091H147.611V24.3671L142.306 14.9637ZM162.279 29.5091V14.9637H171.91V17.4992H165.354V20.9651H171.271V23.5006H165.354V29.5091H162.279ZM174.669 29.5091H171.374L176.395 14.9637H180.358L185.372 29.5091H182.077L178.433 18.2875H178.32L174.669 29.5091ZM174.463 23.7918H182.247V26.1924H174.463V23.7918ZM194.681 19.1469C194.625 18.574 194.381 18.1289 193.95 17.8117C193.519 17.4944 192.934 17.3358 192.196 17.3358C191.694 17.3358 191.27 17.4069 190.924 17.5489C190.579 17.6862 190.314 17.878 190.129 18.1242C189.949 18.3704 189.859 18.6497 189.859 18.9622C189.85 19.2227 189.904 19.4499 190.022 19.6441C190.145 19.8382 190.314 20.0063 190.527 20.1483C190.74 20.2856 190.986 20.4064 191.265 20.5105C191.545 20.61 191.843 20.6952 192.16 20.7662L193.467 21.0787C194.101 21.2208 194.684 21.4102 195.214 21.6469C195.744 21.8837 196.204 22.1748 196.592 22.5205C196.98 22.8661 197.281 23.2733 197.494 23.7421C197.712 24.2108 197.823 24.7482 197.828 25.3543C197.823 26.2444 197.596 27.0162 197.146 27.6696C196.701 28.3183 196.057 28.8226 195.214 29.1824C194.376 29.5375 193.365 29.7151 192.181 29.7151C191.007 29.7151 189.984 29.5352 189.113 29.1753C188.247 28.8155 187.57 28.2828 187.082 27.5773C186.599 26.8671 186.346 25.9888 186.322 24.9424H189.298C189.331 25.4301 189.471 25.8372 189.717 26.164C189.968 26.4859 190.302 26.7298 190.718 26.8955C191.14 27.0565 191.616 27.137 192.146 27.137C192.667 27.137 193.119 27.0612 193.502 26.9097C193.891 26.7582 194.191 26.5475 194.404 26.2776C194.618 26.0077 194.724 25.6976 194.724 25.3472C194.724 25.0205 194.627 24.7459 194.433 24.5233C194.243 24.3008 193.964 24.1114 193.595 23.9551C193.23 23.7989 192.783 23.6569 192.252 23.529L190.669 23.1313C189.442 22.833 188.474 22.3666 187.764 21.7321C187.054 21.0977 186.701 20.243 186.706 19.1682C186.701 18.2875 186.935 17.5181 187.409 16.86C187.887 16.2018 188.543 15.6881 189.376 15.3188C190.209 14.9495 191.156 14.7648 192.217 14.7648C193.296 14.7648 194.239 14.9495 195.044 15.3188C195.853 15.6881 196.483 16.2018 196.933 16.86C197.383 17.5181 197.615 18.2804 197.629 19.1469H194.681ZM199.896 29.5091V14.9637H202.972V20.9651H209.214V14.9637H212.283V29.5091H209.214V23.5006H202.972V29.5091H199.896ZM217.893 14.9637V29.5091H214.818V14.9637H217.893ZM233.79 22.2364C233.79 23.8226 233.489 25.172 232.888 26.2847C232.292 27.3974 231.477 28.2473 230.445 28.8344C229.417 29.4168 228.262 29.708 226.979 29.708C225.686 29.708 224.526 29.4144 223.499 28.8273C222.471 28.2402 221.659 27.3903 221.063 26.2776C220.466 25.1649 220.168 23.8178 220.168 22.2364C220.168 20.6502 220.466 19.3008 221.063 18.1881C221.659 17.0754 222.471 16.2279 223.499 15.6455C224.526 15.0584 225.686 14.7648 226.979 14.7648C228.262 14.7648 229.417 15.0584 230.445 15.6455C231.477 16.2279 232.292 17.0754 232.888 18.1881C233.489 19.3008 233.79 20.6502 233.79 22.2364ZM230.672 22.2364C230.672 21.2089 230.518 20.3425 230.211 19.637C229.908 18.9315 229.479 18.3964 228.925 18.0319C228.371 17.6673 227.722 17.485 226.979 17.485C226.236 17.485 225.587 17.6673 225.033 18.0319C224.479 18.3964 224.048 18.9315 223.74 19.637C223.437 20.3425 223.286 21.2089 223.286 22.2364C223.286 23.2639 223.437 24.1303 223.74 24.8358C224.048 25.5413 224.479 26.0764 225.033 26.4409C225.587 26.8055 226.236 26.9878 226.979 26.9878C227.722 26.9878 228.371 26.8055 228.925 26.4409C229.479 26.0764 229.908 25.5413 230.211 24.8358C230.518 24.1303 230.672 23.2639 230.672 22.2364ZM248.234 14.9637V29.5091H245.578L239.25 20.3543H239.143V29.5091H236.068V14.9637H238.767L245.045 24.1114H245.173V14.9637H248.234Z" fill="#BF02DE"/>
</svg>
