<svg width="214" height="47" viewBox="0 0 214 47" fill="none" xmlns="http://www.w3.org/2000/svg">
<rect width="214" height="47" fill="white"/>
<path fill-rule="evenodd" clip-rule="evenodd" d="M27.5557 27.2788C27.4357 27.2633 27.3145 27.2253 27.1969 27.1618L13.9481 20.0045C13.2533 19.6291 13.2137 18.6516 13.8776 18.263L26.5362 10.8526C26.7498 10.7275 26.9841 10.6944 27.2036 10.7333C28.037 9.61011 29.0475 8.5692 30.2174 7.63727L32.9391 9.7986C30.6916 11.5889 29.1711 13.8763 28.57 16.3715C28.4429 16.8989 28.3581 17.4306 28.3152 17.9635L28.4153 20.4351C28.6024 21.5902 28.986 22.7281 29.5618 23.8167C30.8097 26.1757 32.9041 28.1969 35.5804 29.6247C36.5689 30.1521 38.0727 29.6977 39.5706 29.2452C42.1281 28.4725 44.6683 27.705 44.5971 31.8379C44.6684 27.7005 47.1711 28.4982 49.6735 29.2958C51.1348 29.7615 52.5959 30.2273 53.5726 29.7102C56.2221 28.3078 58.2785 26.3063 59.4818 23.9589C60.1286 22.6973 60.5132 21.3662 60.6301 20.0164L60.525 17.4229C60.4744 17.1219 60.4104 16.8216 60.3329 16.5225C59.6844 14.0213 58.1205 11.7193 55.8389 9.90746L58.52 7.77181C59.4662 8.5232 60.3125 9.3428 61.0497 10.217C61.2665 10.1733 61.504 10.2016 61.7283 10.3228L74.9771 17.48C75.6719 17.8554 75.7115 18.8329 75.0476 19.2216L62.389 26.632C62.2817 26.6948 62.1692 26.7344 62.056 26.7534C60.5366 28.9584 58.3675 30.8447 55.719 32.2467C52.4445 33.98 48.584 34.8951 44.6258 34.8763C40.6676 34.8575 36.7895 33.9056 33.4818 32.141C31.0888 30.8643 29.0721 29.2037 27.5557 27.2788Z" fill="#111011"/>
<path d="M37.321 23V5.54545H44.5312C45.8381 5.54545 46.9659 5.78125 47.9148 6.25284C48.8693 6.71875 49.6051 7.3892 50.1222 8.2642C50.6392 9.13352 50.8977 10.1648 50.8977 11.358C50.8977 12.5682 50.6335 13.5966 50.1051 14.4432C49.5767 15.2841 48.8267 15.9261 47.8551 16.3693C46.8835 16.8068 45.733 17.0256 44.4034 17.0256H39.8438V13.7017H43.6193C44.2557 13.7017 44.7869 13.6193 45.2131 13.4545C45.6449 13.2841 45.9716 13.0284 46.1932 12.6875C46.4148 12.3409 46.5256 11.8977 46.5256 11.358C46.5256 10.8182 46.4148 10.3722 46.1932 10.0199C45.9716 9.66193 45.6449 9.39489 45.2131 9.21875C44.7813 9.03693 44.25 8.94602 43.6193 8.94602H41.5398V23H37.321ZM47.1477 15.0227L51.4943 23H46.892L42.6307 15.0227H47.1477Z" fill="#BF02DE"/>
<path d="M101.213 24.5091V14.3273H105.419C106.181 14.3273 106.839 14.4649 107.393 14.7399C107.95 15.0117 108.379 15.4028 108.681 15.9132C108.982 16.4203 109.133 17.0219 109.133 17.7179C109.133 18.4239 108.979 19.0238 108.671 19.5176C108.362 20.0082 107.925 20.3827 107.358 20.6412C106.791 20.8964 106.12 21.024 105.345 21.024H102.685V19.0851H104.887C105.258 19.0851 105.568 19.0371 105.817 18.9409C106.069 18.8415 106.259 18.6924 106.389 18.4935C106.518 18.2913 106.583 18.0328 106.583 17.7179C106.583 17.4031 106.518 17.1429 106.389 16.9374C106.259 16.7286 106.069 16.5728 105.817 16.4701C105.565 16.364 105.255 16.311 104.887 16.311H103.674V24.5091H101.213ZM106.945 19.8557L109.481 24.5091H106.796L104.311 19.8557H106.945ZM112.944 14.3273V24.5091H110.483V14.3273H112.944ZM114.156 16.3259V14.3273H122.761V16.3259H119.674V24.5091H117.248V16.3259H114.156ZM123.928 24.5091V23.1071L128.875 16.3259H123.933V14.3273H131.987V15.7293L127.041 22.5105H131.982V24.5091H123.928ZM132.985 14.3273H135.735L137.887 18.588H137.977L140.13 14.3273H142.879L139.155 21.1086V24.5091H136.709V21.1086L132.985 14.3273ZM146.918 24.5091V14.3273H153.869V16.3259H149.379V18.414H153.426V20.4175H149.379V24.5091H146.918ZM156.039 24.5091H153.394L156.829 14.3273H160.105L163.541 24.5091H160.896L158.505 16.8926H158.425L156.039 24.5091ZM155.686 20.502H161.214V22.3713H155.686V20.502ZM169.826 17.3799C169.793 17.0153 169.646 16.7319 169.384 16.5297C169.125 16.3242 168.756 16.2215 168.275 16.2215C167.957 16.2215 167.692 16.2629 167.48 16.3458C167.267 16.4286 167.108 16.543 167.002 16.6888C166.896 16.8313 166.842 16.9954 166.838 17.181C166.832 17.3335 166.861 17.4677 166.928 17.5837C166.997 17.6997 167.097 17.8024 167.226 17.8919C167.359 17.9781 167.518 18.0543 167.703 18.1206C167.889 18.1869 168.098 18.2449 168.33 18.2946L169.205 18.4935C169.708 18.6029 170.153 18.7487 170.537 18.931C170.925 19.1133 171.25 19.3304 171.512 19.5823C171.777 19.8342 171.977 20.1242 172.113 20.4523C172.249 20.7804 172.319 21.1483 172.322 21.556C172.319 22.199 172.156 22.7508 171.835 23.2115C171.513 23.6722 171.051 24.0252 170.448 24.2705C169.848 24.5158 169.123 24.6384 168.275 24.6384C167.423 24.6384 166.681 24.5108 166.048 24.2556C165.415 24.0004 164.922 23.6126 164.571 23.0922C164.22 22.5719 164.039 21.914 164.029 21.1185H166.386C166.406 21.4466 166.494 21.7201 166.649 21.9388C166.805 22.1576 167.019 22.3233 167.291 22.436C167.566 22.5487 167.884 22.605 168.245 22.605C168.577 22.605 168.858 22.5603 169.09 22.4708C169.326 22.3813 169.506 22.257 169.632 22.0979C169.758 21.9388 169.823 21.7565 169.826 21.551C169.823 21.3588 169.763 21.1947 169.647 21.0588C169.531 20.9196 169.352 20.8003 169.11 20.7009C168.872 20.5981 168.567 20.5037 168.195 20.4175L167.132 20.1689C166.25 19.9667 165.556 19.6403 165.048 19.1895C164.541 18.7355 164.289 18.1223 164.293 17.35C164.289 16.7203 164.458 16.1685 164.8 15.6945C165.141 15.2205 165.614 14.851 166.217 14.5858C166.82 14.3207 167.508 14.1881 168.28 14.1881C169.069 14.1881 169.753 14.3223 170.333 14.5908C170.917 14.856 171.369 15.2288 171.69 15.7094C172.012 16.19 172.176 16.7468 172.183 17.3799H169.826ZM173.565 24.5091V14.3273H176.026V18.414H180.038V14.3273H182.494V24.5091H180.038V20.4175H176.026V24.5091H173.565ZM186.498 14.3273V24.5091H184.037V14.3273H186.498ZM197.653 19.4182C197.653 20.5385 197.438 21.4881 197.007 22.2669C196.576 23.0458 195.993 23.6374 195.257 24.0418C194.525 24.4462 193.703 24.6483 192.791 24.6483C191.876 24.6483 191.053 24.4445 190.32 24.0368C189.588 23.6292 189.006 23.0375 188.575 22.262C188.148 21.4831 187.934 20.5352 187.934 19.4182C187.934 18.298 188.148 17.3484 188.575 16.5695C189.006 15.7906 189.588 15.199 190.32 14.7946C191.053 14.3903 191.876 14.1881 192.791 14.1881C193.703 14.1881 194.525 14.3903 195.257 14.7946C195.993 15.199 196.576 15.7906 197.007 16.5695C197.438 17.3484 197.653 18.298 197.653 19.4182ZM195.138 19.4182C195.138 18.7553 195.043 18.1952 194.854 17.7378C194.669 17.2804 194.4 16.9341 194.049 16.6988C193.701 16.4634 193.282 16.3458 192.791 16.3458C192.304 16.3458 191.885 16.4634 191.533 16.6988C191.182 16.9341 190.912 17.2804 190.723 17.7378C190.537 18.1952 190.445 18.7553 190.445 19.4182C190.445 20.0811 190.537 20.6412 190.723 21.0986C190.912 21.556 191.182 21.9024 191.533 22.1377C191.885 22.373 192.304 22.4907 192.791 22.4907C193.282 22.4907 193.701 22.373 194.049 22.1377C194.4 21.9024 194.669 21.556 194.854 21.0986C195.043 20.6412 195.138 20.0811 195.138 19.4182ZM207.756 14.3273V24.5091H205.668L201.616 18.6327H201.551V24.5091H199.09V14.3273H201.208L205.215 20.1938H205.3V14.3273H207.756Z" fill="#BF02DE"/>
</svg>
